<svg role="img" viewBox="0 0 24 24" xmlns="http://www.w3.org/2000/svg" fill="currentColor">
  <path d="M12 2.163c3.204 0 3.584.012 4.85.07 3.252.148 4.771 1.691 4.919 4.919.058 1.265.069 1.645.069 4.849 0 3.205-.012 3.584-.069 4.849-.148 3.227-1.667 4.771-4.919 4.919-1.266.058-1.645.07-4.849.07-3.204 0-3.584-.012-4.849-.07-3.252-.148-4.771-1.691-4.919-4.919-.058-1.265-.069-1.645-.069-4.849 0-3.205.012-3.584.069-4.849.148-3.227 1.667-4.771 4.919-4.919 1.266-.058 1.645-.07 4.849-.07zM12 0C8.741 0 8.333.014 7.052.072 2.695.272.273 2.695.072 7.052.014 8.333 0 8.741 0 12s.014 3.668.072 4.948c.2 4.357 2.623 6.78 6.98 6.98 1.281.058 1.689.072 4.948.072s3.668-.014 4.948-.072c4.357-.2 6.78-2.623 6.98-6.98.058-1.281.072-1.689.072-4.948s-.014-3.668-.072-4.948c-.2-4.357-2.623-6.78-6.98-6.98C15.668.014 15.259 0 12 0zm0 5.838a6.162 6.162 0 100 12.324 6.162 6.162 0 000-12.324zm0 10.162a4 4 0 110-8 4 4 0 010 8zm6.406-11.845a1.44 1.44 0 11-2.88 0 1.44 1.44 0 012.88 0z"/>
</svg>