<svg role="img" viewBox="0 0 24 24" xmlns="http://www.w3.org/2000/svg" fill="currentColor">
  <path d="M12.525.02c1.31-.02 2.61-.01 3.91-.02.08 1.53.63 3.09 1.75 4.17 1.12 1.11 2.7 1.62 4.24 1.79v4.03c-1.44-.05-2.89-.35-4.2-.97-.57-.26-1.1-.59-1.62-.93-.01 2.92.01 5.84-.02 8.75-.08 1.4-.54 2.79-1.35 3.94-1.31 1.92-3.58 3.17-5.91 3.21-1.43.08-2.86-.31-4.08-1.03-2.02-1.19-3.44-3.37-3.65-5.71-.1-1.24.18-2.47.79-3.54.92-1.64 2.62-2.77 4.46-3.09.63-.1 1.27-.13 1.91-.07v4.05c-.64-.05-1.28.02-1.9.22-.99.31-1.85.99-2.43 1.85-.58.86-.87 1.86-.82 2.89.09 1.85 1.54 3.43 3.37 3.78 1.23.24 2.49-.03 3.54-.74 1.05-.71 1.76-1.85 2.01-3.14.24-1.22.18-2.47.09-3.71-.07-1.2-.14-2.39-.14-3.59V.02h.01z"/>
</svg>